<svg xmlns="http://www.w3.org/2000/svg" version="1.0" width="512.000000pt" height="512.000000pt" viewBox="0 0 512.000000 512.000000" preserveAspectRatio="xMidYMid meet">

<g transform="translate(0.000000,512.000000) scale(0.100000,-0.100000)" fill="#000000" stroke="none">
<path d="M2215 4284 c-11 -2 -45 -9 -75 -15 -122 -24 -263 -112 -358 -224 -50 -58 -114 -186 -133 -265 -17 -71 -17 -209 0 -280 45 -187 182 -356 356 -440 102 -49 169 -64 275 -64 106 0 173 15 275 64 174 84 311 253 356 440 17 71 17 209 0 280 -31 130 -115 264 -226 358 -56 48 -185 114 -257 131 -55 13 -183 22 -213 15z m199 -129 c99 -26 166 -65 241 -140 106 -105 155 -225 155 -375 0 -150 -49 -270 -155 -375 -105 -106 -225 -155 -375 -155 -150 0 -270 49 -375 155 -106 105 -155 225 -155 375 0 150 49 270 155 375 106 106 218 153 370 154 45 1 107 -6 139 -14z"/>
<path d="M1500 2765 c-175 -43 -317 -154 -394 -309 -57 -114 -66 -165 -66 -381 0 -246 18 -331 101 -498 129 -258 396 -456 683 -506 35 -7 216 -11 432 -11 403 0 404 0 404 53 -1 53 10 52 -407 58 -327 4 -400 8 -462 23 -333 82 -568 330 -626 661 -17 100 -20 335 -5 416 35 190 205 356 397 388 48 9 279 11 788 9 711 -3 721 -4 777 -25 83 -31 159 -85 219 -154 28 -32 59 -59 68 -59 31 0 61 30 61 61 0 46 -131 173 -230 222 -140 69 -111 67 -940 66 -587 0 -757 -4 -800 -14z"/>
<path d="M3570 2294 c-374 -80 -668 -376 -745 -749 -19 -96 -19 -275 1 -371 65 -317 295 -588 597 -704 217 -83 469 -82 686 5 236 93 443 301 537 538 64 160 83 368 48 533 -76 373 -376 672 -749 749 -92 19 -286 19 -375 -1z m425 -129 c285 -83 498 -301 577 -590 17 -64 22 -107 21 -220 0 -123 -3 -151 -27 -230 -85 -283 -288 -486 -571 -571 -79 -24 -107 -27 -230 -27 -164 -1 -250 18 -382 83 -208 102 -359 284 -429 515 -24 80 -27 106 -27 235 0 129 3 155 27 235 96 317 343 535 673 595 89 16 269 4 368 -25z"/>
<path d="M3855 1440 c-143 -143 -262 -260 -265 -260 -3 0 -48 39 -100 86 l-93 85 -38 -43 -39 -43 48 -45 c27 -25 88 -81 136 -124 l87 -80 304 304 305 305 -37 37 c-20 21 -40 38 -43 38 -3 0 -122 -117 -265 -260z"/>
</g>
</svg>