<svg xmlns="http://www.w3.org/2000/svg" version="1.0" width="640.000000pt" height="640.000000pt" viewBox="0 0 640.000000 640.000000" preserveAspectRatio="xMidYMid meet">

<g transform="translate(0.000000,640.000000) scale(0.100000,-0.100000)" fill="#222222" stroke="none">
<path d="M3168 5579 c-10 -5 -42 -47 -70 -92 -206 -320 -515 -598 -864 -778 -297 -152 -684 -259 -1027 -285 -75 -6 -91 -10 -112 -32 -29 -29 -30 -43 -15 -262 68 -975 377 -1854 866 -2461 300 -373 688 -660 1128 -834 139 -56 120 -58 341 36 1035 437 1710 1514 1890 3014 18 148 31 449 22 487 -8 32 -41 45 -137 52 -265 22 -573 94 -812 192 -298 121 -538 277 -754 491 -150 147 -212 222 -318 384 -65 100 -90 116 -138 88z m214 -1264 c216 -53 348 -225 348 -455 0 -36 7 -74 20 -101 41 -92 18 -228 -57 -338 -52 -74 -49 -69 -79 -140 -166 -385 -621 -394 -804 -16 -24 50 -59 111 -77 136 -64 90 -87 155 -88 244 0 62 5 89 21 122 16 30 22 61 22 110 3 298 224 477 562 456 41 -2 101 -11 132 -18z m-537 -1376 c92 -67 131 -86 222 -110 170 -43 354 -5 494 103 86 67 81 66 183 13 288 -150 349 -192 407 -284 73 -114 124 -381 84 -438 -30 -42 -289 -110 -575 -150 -183 -26 -720 -25 -910 0 -271 37 -537 105 -575 147 -16 17 -17 32 -12 112 12 172 68 321 155 406 50 49 399 249 437 251 11 1 52 -22 90 -50z"/>
</g>
</svg>