<?xml version="1.0" standalone="no"?>
<!DOCTYPE svg PUBLIC "-//W3C//DTD SVG 20010904//EN"
 "http://www.w3.org/TR/2001/REC-SVG-20010904/DTD/svg10.dtd">
<svg version="1.0" xmlns="http://www.w3.org/2000/svg"
 width="200.000000pt" height="200.000000pt" viewBox="0 0 200.000000 200.000000"
 preserveAspectRatio="xMidYMid meet">

<rect width="100%" height="100%" fill="#ffffff"/>
<g transform="translate(0.000000,200.000000) scale(0.100000,-0.100000)"
fill="#000000" stroke="none">
<path d="M0 1000 l0 -1000 1000 0 1000 0 0 1000 0 1000 -1000 0 -1000 0 0
-1000z m888 225 l2 -227 42 6 c80 13 134 54 295 223 130 136 166 168 217 192
33 16 76 32 94 35 l32 6 0 -230 0 -229 -37 -7 c-86 -15 -147 -61 -307 -228
-163 -171 -217 -211 -300 -222 l-46 -7 0 231 0 231 -32 -5 c-78 -14 -142 -56
-238 -157 -200 -211 -228 -237 -292 -267 -35 -17 -75 -30 -90 -30 l-28 0 0
230 0 230 28 0 c33 0 119 39 167 76 20 15 87 84 149 153 62 70 139 144 169
165 52 36 138 68 162 62 6 -2 11 -89 13 -231z m793 -256 c81 -41 127 -134 116
-232 -11 -91 -95 -179 -184 -193 l-43 -7 0 233 0 232 37 -7 c20 -4 54 -15 74
-26z"/>
</g>
</svg>
