<?xml version="1.0" standalone="no"?>
<!DOCTYPE svg PUBLIC "-//W3C//DTD SVG 20010904//EN"
 "http://www.w3.org/TR/2001/REC-SVG-20010904/DTD/svg10.dtd">
<svg version="1.0" xmlns="http://www.w3.org/2000/svg"
 width="1370.000000pt" height="1206.000000pt" viewBox="0 0 1370.000000 1206.000000"
 preserveAspectRatio="xMidYMid meet">

<g transform="translate(0.000000,1206.000000) scale(0.100000,-0.100000)"
fill="#000000" stroke="none">
<path d="M3365 10573 c-11 -3 -22 -8 -25 -12 -3 -3 -32 -19 -64 -36 -33 -16
-64 -39 -70 -50 -6 -11 -14 -22 -18 -25 -38 -29 -35 -270 2 -270 6 0 10 -6 10
-14 0 -20 48 -126 65 -143 8 -8 15 -20 15 -26 0 -7 3 -23 7 -36 l6 -24 -239 6
-239 6 75 -25 c41 -13 111 -27 155 -31 44 -3 83 -11 87 -16 4 -7 -15 -19 -45
-32 -53 -21 -64 -38 -27 -43 11 -2 20 -7 20 -11 0 -4 44 -16 98 -26 53 -10
103 -21 110 -25 7 -3 -31 -14 -85 -25 -54 -10 -100 -21 -103 -25 -4 -7 -89
-27 -195 -48 -17 -4 42 -11 132 -17 101 -6 167 -15 175 -23 9 -9 9 -23 -2 -64
-7 -29 -18 -58 -25 -65 -7 -6 -23 -57 -36 -112 -13 -56 -27 -101 -31 -101 -5
0 -8 -8 -8 -17 0 -27 -53 -257 -61 -263 -3 -3 -21 -84 -39 -180 -18 -96 -36
-177 -40 -180 -4 -3 -20 -77 -35 -165 -16 -88 -32 -162 -35 -165 -7 -6 -60
-312 -60 -348 0 -12 -4 -22 -8 -22 -13 0 -62 -458 -62 -582 0 -27 -4 -48 -10
-48 -6 0 -10 -130 -10 -370 0 -203 4 -370 8 -370 5 0 12 -52 15 -116 8 -150
47 -458 58 -462 5 -2 9 -13 9 -25 0 -34 51 -291 59 -297 4 -3 20 -58 35 -122
15 -65 31 -118 35 -118 4 0 21 -46 36 -101 16 -56 35 -108 42 -115 7 -7 13
-17 13 -22 0 -13 51 -136 59 -142 4 -3 18 -31 31 -63 12 -32 28 -64 34 -70 6
-7 25 -39 41 -72 17 -33 32 -62 35 -65 12 -12 60 -90 60 -99 0 -5 6 -11 13
-14 7 -2 26 -29 41 -58 16 -30 33 -56 37 -59 11 -7 45 -122 54 -180 4 -25 13
-48 19 -52 7 -5 11 -71 11 -213 0 -142 -4 -208 -11 -213 -6 -4 -15 -27 -19
-51 -8 -48 -41 -128 -60 -148 -7 -7 -23 -28 -35 -48 -22 -35 -90 -75 -155 -91
-16 -4 -33 -12 -36 -17 -4 -5 -85 -13 -180 -18 -215 -10 -649 -64 -649 -81 0
-4 -11 -8 -24 -8 -13 0 -70 -9 -127 -20 -57 -11 -153 -30 -214 -42 -60 -12
-112 -24 -115 -28 -3 -4 -86 -24 -185 -45 -99 -21 -182 -42 -185 -46 -3 -5
-35 -15 -70 -23 -177 -38 -306 -70 -310 -76 -4 -6 -237 -70 -317 -87 -13 -3
-23 -9 -23 -13 0 -5 -15 -12 -32 -15 -51 -11 -212 -65 -218 -73 -3 -4 -31 -20
-63 -36 -32 -16 -63 -38 -69 -50 -6 -11 -18 -27 -26 -35 -24 -24 -8 -98 28
-132 16 -16 38 -29 49 -29 11 0 21 -6 24 -12 5 -16 425 -16 436 -1 7 10 474
57 746 75 99 6 182 15 185 18 5 7 303 24 730 40 776 30 910 39 918 61 2 5 12
9 22 9 53 0 193 97 279 194 14 17 35 39 46 50 11 12 27 34 35 49 8 16 23 38
35 50 11 12 32 47 45 77 14 30 30 60 36 67 6 6 16 26 23 45 26 68 46 113 52
118 3 3 19 38 35 78 15 39 33 72 40 72 7 0 22 -12 34 -27 11 -15 33 -34 48
-43 15 -9 68 -57 119 -106 50 -49 108 -100 128 -114 20 -14 46 -35 58 -47 11
-13 25 -23 29 -23 5 0 24 -11 42 -25 18 -14 38 -25 43 -25 6 0 13 -6 16 -13 3
-7 40 -31 83 -52 44 -21 81 -43 84 -47 6 -8 117 -51 177 -69 18 -5 38 -15 45
-22 13 -12 46 -26 131 -54 33 -11 47 -21 47 -35 0 -10 -4 -18 -9 -18 -4 0 -20
-27 -35 -60 -15 -33 -31 -60 -35 -60 -8 0 -35 -56 -46 -97 -4 -13 -12 -29 -19
-35 -36 -37 -71 -262 -63 -397 7 -100 40 -280 54 -290 8 -6 46 -96 58 -138 3
-13 10 -23 15 -23 5 0 21 -25 35 -55 15 -30 30 -55 34 -55 4 0 18 -21 31 -46
13 -25 32 -50 42 -55 10 -5 18 -15 18 -22 0 -7 18 -33 39 -57 22 -25 57 -65
78 -89 64 -73 206 -211 236 -229 15 -9 27 -19 27 -23 0 -4 26 -26 58 -50 31
-24 59 -47 60 -52 2 -4 22 -20 45 -36 23 -16 57 -43 76 -59 18 -17 48 -38 65
-46 18 -8 43 -26 57 -39 13 -12 49 -38 79 -57 30 -18 60 -39 65 -45 6 -6 40
-28 78 -49 37 -21 67 -41 67 -44 0 -4 42 -27 93 -52 50 -25 94 -48 97 -52 8
-9 191 -88 207 -88 7 0 13 -4 13 -9 0 -8 35 -19 128 -41 40 -10 42 4 5 47
-101 113 -113 142 -94 229 7 31 20 64 29 73 18 19 50 55 95 109 15 19 27 40
27 49 0 8 -20 35 -44 59 -56 54 -71 98 -56 154 6 23 22 52 36 65 13 12 24 27
24 33 0 6 20 27 44 47 24 19 49 49 56 65 7 17 16 30 21 30 15 0 10 80 -6 96
-8 9 -22 40 -31 71 -19 64 -8 124 26 146 11 6 20 16 20 21 0 5 34 43 75 83 41
40 75 74 75 77 0 2 -13 9 -30 16 -16 7 -30 16 -30 19 0 4 -18 15 -40 25 -37
16 -74 48 -124 106 -10 12 -30 47 -44 79 -14 31 -28 58 -32 61 -21 15 -43 167
-48 336 l-5 180 64 -4 c35 -3 66 -8 69 -12 5 -7 163 -24 385 -40 238 -18 753
-23 1015 -11 325 15 654 41 658 52 2 5 19 9 38 9 74 0 493 75 504 91 3 3 21
10 40 13 103 21 336 80 340 87 3 4 28 13 55 19 73 16 229 63 235 71 3 3 70 25
150 48 79 23 147 45 150 50 3 4 66 27 140 51 74 24 137 47 140 51 5 7 20 13
150 59 36 13 67 26 70 31 10 15 186 80 232 86 45 5 47 4 54 -21 12 -47 -19
-382 -36 -396 -6 -5 -45 -300 -57 -430 -3 -41 -11 -78 -16 -82 -16 -10 -16
-560 1 -565 6 -3 12 -16 12 -30 0 -57 30 -131 65 -157 18 -14 41 -33 50 -42
24 -24 155 -32 176 -12 8 8 26 21 41 29 14 8 41 28 59 45 33 30 47 48 78 109
9 16 19 32 23 36 13 9 47 156 54 234 4 41 10 75 14 75 4 0 11 17 15 37 3 21
17 61 30 89 38 80 82 93 360 104 139 5 210 11 213 19 2 6 9 11 17 11 32 0 108
45 165 97 130 120 190 180 190 191 0 6 9 16 21 22 23 13 58 83 59 118 0 12 5
22 10 22 6 0 10 32 10 75 0 43 -4 75 -10 75 -5 0 -10 14 -10 32 0 35 -49 230
-60 238 -4 3 -19 37 -35 75 -15 39 -31 72 -35 75 -4 3 -18 29 -30 58 -13 29
-28 56 -34 60 -6 4 -24 34 -41 67 -16 33 -37 69 -47 79 -9 10 -26 38 -38 62
-11 24 -24 44 -28 44 -5 0 -21 27 -37 60 -16 33 -32 60 -36 60 -4 0 -17 20
-29 45 -12 25 -27 51 -34 58 -6 7 -24 39 -41 72 -16 33 -36 66 -44 74 -8 9
-23 36 -34 61 -11 25 -23 47 -27 50 -4 3 -21 34 -39 70 -18 36 -36 67 -40 70
-4 3 -20 34 -35 70 -16 36 -32 67 -37 70 -4 3 -19 32 -33 65 -15 32 -30 62
-35 65 -4 3 -21 34 -37 70 -15 36 -31 67 -35 70 -4 3 -19 31 -34 62 -15 32
-31 58 -35 58 -5 0 -20 24 -34 54 -14 30 -32 60 -39 68 -7 7 -25 34 -40 61
-15 26 -31 47 -35 47 -4 0 -13 12 -19 28 -7 15 -29 44 -48 65 -19 21 -35 42
-35 46 0 5 -34 43 -75 85 -41 42 -75 81 -75 85 0 5 -24 28 -52 50 -29 22 -64
51 -78 64 -14 13 -42 34 -62 46 -21 13 -38 27 -38 32 0 5 -5 9 -12 9 -6 0 -19
6 -27 14 -9 8 -38 26 -66 42 -27 15 -52 30 -55 35 -6 9 -136 74 -167 83 -13 4
-23 11 -23 16 0 4 -48 25 -107 46 -60 21 -111 43 -115 48 -4 6 -8 23 -8 39 l0
27 -114 0 c-104 0 -213 15 -226 30 -19 23 -627 90 -812 90 -32 0 -58 4 -58 8
0 5 -98 14 -217 20 -264 15 -776 61 -783 71 -3 4 -66 15 -140 24 -229 29 -470
69 -470 78 0 5 -9 9 -20 9 -37 0 -395 82 -398 91 -2 5 -9 9 -16 9 -18 0 -240
72 -246 79 -3 4 -52 26 -110 51 -58 24 -107 47 -110 50 -3 4 -36 24 -75 44
-38 20 -81 47 -94 61 -13 14 -29 25 -35 25 -7 0 -23 11 -36 25 -13 14 -27 25
-31 25 -4 0 -23 15 -43 33 -19 17 -53 48 -76 67 -66 57 -132 123 -175 174 -22
27 -57 64 -77 84 -21 19 -38 39 -38 45 0 5 -12 21 -27 36 -35 33 -77 85 -111
135 -15 21 -39 52 -54 68 -15 17 -28 35 -28 42 0 6 -10 21 -23 32 -12 12 -29
35 -37 50 -8 16 -25 40 -37 53 -12 13 -30 41 -40 62 -9 22 -20 39 -25 39 -4 0
-20 24 -34 53 -15 28 -30 54 -34 57 -3 3 -22 39 -41 80 -18 41 -36 77 -40 80
-9 7 -59 155 -59 173 0 9 -5 17 -10 19 -6 2 -23 64 -38 138 -15 74 -30 137
-34 140 -5 4 -30 184 -54 395 -4 33 -10 62 -13 65 -3 3 -19 90 -34 195 -15
104 -31 191 -37 193 -5 2 -10 11 -10 20 0 27 -61 256 -69 262 -4 3 -10 14 -14
25 -13 46 -49 140 -56 145 -4 3 -20 31 -36 63 -15 31 -31 57 -34 57 -3 0 -12
13 -19 29 -7 16 -24 41 -37 55 -14 15 -25 31 -25 35 0 4 -45 54 -99 110 -92
94 -160 151 -180 151 -5 0 -19 11 -32 24 -25 24 -135 68 -201 80 -21 4 -38 10
-38 15 0 16 -133 30 -775 81 -77 7 -143 16 -146 21 -6 11 -263 21 -294 12z
m4879 -4925 c12 -56 25 -441 26 -710 l0 -258 31 0 c55 0 173 32 241 66 67 33
169 108 262 194 108 99 236 220 346 326 259 251 331 303 515 369 51 19 116 37
144 41 l51 7 0 -502 0 -501 23 0 c44 -1 163 -38 239 -74 129 -63 216 -173 250
-315 23 -97 23 -159 -1 -243 -24 -85 -76 -163 -155 -234 -87 -80 -188 -124
-313 -137 l-43 -5 0 504 c0 473 -1 504 -17 504 -37 -1 -180 -38 -228 -59 -27
-12 -72 -36 -100 -54 -65 -41 -63 -40 -115 -84 -25 -22 -61 -52 -80 -67 -39
-32 -98 -87 -345 -322 -210 -200 -261 -244 -353 -305 -103 -68 -187 -97 -324
-113 l-48 -6 0 505 c0 398 -3 505 -12 505 -42 -1 -184 -42 -248 -72 -68 -31
-224 -140 -276 -192 -11 -12 -121 -118 -244 -236 -122 -118 -232 -224 -244
-236 -147 -144 -348 -251 -493 -261 l-73 -6 0 502 0 501 49 0 c92 0 309 91
414 173 29 22 165 152 302 288 345 340 387 376 504 437 68 35 192 83 246 95
52 12 62 8 69 -25z"/>
<path d="M7335 9470 c-117 -18 -275 -57 -312 -78 -12 -6 -30 -12 -40 -12 -11
0 -28 -7 -39 -15 -10 -8 -25 -15 -32 -15 -17 0 -106 -59 -151 -99 -30 -27 -51
-55 -65 -86 -31 -72 -46 -665 -17 -718 7 -14 11 -36 8 -49 -3 -13 -10 -41 -16
-63 -17 -63 -13 -451 4 -500 18 -49 19 -77 3 -93 -10 -10 -14 -76 -16 -243 -5
-292 0 -312 103 -414 69 -70 147 -123 235 -159 25 -10 59 -24 75 -31 59 -25
101 -37 154 -46 29 -5 62 -14 72 -19 10 -6 30 -10 46 -10 15 0 63 -8 105 -17
43 -9 81 -13 85 -10 6 7 23 109 18 115 -1 1 -42 9 -91 17 -158 27 -272 57
-379 100 -64 26 -165 79 -165 87 0 5 -5 8 -10 8 -18 0 -81 63 -106 106 -24 40
-24 47 -22 213 l3 172 51 -38 c28 -21 78 -51 110 -67 32 -16 71 -35 86 -42 14
-8 32 -14 40 -14 7 0 25 -6 40 -14 14 -8 45 -17 67 -21 23 -4 43 -11 47 -16 3
-5 20 -9 37 -9 18 0 48 -5 67 -10 68 -20 297 -43 437 -44 l143 -1 102 104 103
103 -90 -6 c-242 -17 -288 -18 -409 -7 -303 28 -528 91 -681 191 -16 11 -40
25 -51 31 -12 6 -28 22 -35 35 -7 13 -16 24 -20 24 -4 0 -16 16 -28 36 -19 32
-21 50 -21 210 0 174 0 175 21 164 11 -7 30 -21 41 -32 11 -11 34 -26 51 -34
18 -8 39 -18 47 -23 15 -10 76 -37 140 -63 81 -34 236 -72 371 -92 160 -24
519 -22 686 4 192 29 194 30 217 103 11 33 30 81 43 105 13 25 21 47 18 50 -2
3 -31 -2 -62 -11 -32 -8 -78 -21 -103 -28 -25 -6 -76 -15 -115 -20 -38 -4
-101 -13 -140 -18 -89 -13 -318 -13 -415 0 -41 5 -104 13 -140 18 -87 11 -229
46 -315 78 -69 26 -202 93 -223 114 -12 10 -25 19 -29 19 -4 0 -17 14 -28 30
-11 16 -23 30 -27 30 -5 0 -8 6 -8 14 0 8 -6 16 -12 18 -16 6 -25 338 -10 338
5 0 22 -10 36 -21 37 -29 136 -79 156 -79 9 0 25 -7 36 -15 10 -8 28 -15 40
-15 11 0 40 -6 65 -14 45 -14 142 -35 264 -56 39 -7 198 -15 354 -17 333 -6
478 9 726 73 104 27 244 88 303 132 l32 24 0 -131 c0 -72 3 -131 7 -131 3 0
31 8 61 18 l54 17 -5 205 c-5 211 -24 349 -53 381 -8 8 -14 19 -14 22 0 31
-209 167 -256 167 -9 0 -28 6 -42 14 -28 14 -58 23 -207 58 -84 20 -120 22
-525 24 -239 1 -457 -2 -485 -6z"/>
<path d="M8861 8420 c-29 -4 -58 -13 -64 -19 -6 -6 -17 -11 -25 -11 -7 0 -38
-16 -68 -36 -120 -80 -201 -201 -225 -338 -12 -70 -6 -196 11 -240 7 -20 2
-31 -32 -67 -102 -110 -160 -169 -169 -169 -5 0 -9 -5 -9 -10 0 -6 -125 -137
-277 -291 -295 -297 -298 -302 -309 -408 -3 -31 -12 -94 -21 -140 -20 -109
-15 -116 77 -96 92 19 180 37 216 42 20 3 48 21 75 49 l43 44 86 0 c54 0 91 5
98 12 7 7 12 43 12 90 l0 78 44 0 c24 0 48 6 54 13 6 7 12 37 14 67 l3 55 60
3 c108 4 105 2 105 88 l0 76 119 121 118 120 42 -16 c27 -11 70 -17 127 -17
141 0 260 51 359 156 40 42 49 56 93 144 36 74 37 76 37 200 0 84 -5 137 -14
160 -26 64 -56 124 -71 140 -8 9 -34 37 -57 63 -23 26 -47 47 -52 47 -6 0 -11
3 -11 8 0 4 -21 18 -47 31 -27 13 -59 29 -73 36 -32 17 -198 26 -269 15z m364
-145 c140 -63 134 -261 -10 -330 -164 -77 -320 154 -195 288 56 60 131 76 205
42z m-671 -630 l24 -40 -357 -362 c-228 -231 -365 -363 -378 -363 -27 0 -43
19 -43 52 0 23 54 83 319 350 175 178 336 342 357 365 22 22 43 40 47 40 4 -1
18 -20 31 -42z"/>
</g>
</svg>
